Coordinates
version=1
nRows=14
nColumns=33
inDegrees=yes

Units are S.I. units (second, meters, Newtons, ...)
Angles are in degrees.

endheader
time	ground_thorax_rot_x	ground_thorax_rot_y	ground_thorax_rot_z	ground_thorax_tx	ground_thorax_ty	ground_thorax_tz	clav_prot_r	clav_elev_r	scapula_abduction_r	scapula_elevation_r	scapula_upward_rot_r	scapula_winging_r	shoulder_elv_r	plane_of_elev_r	axial_rot_r	elbow_flexion_r	pro_sup_r	wrist_flex_r	wrist_dev_r	clav_prot_l	clav_elev_l	scapula_abduction_l	scapula_elevation_l	scapula_upward_rot_l	scapula_winging_l	shoulder_elv_l	plane_of_elev_l	axial_rot_l	elbow_flexion_l	pro_sup_l	wrist_flex_l	wrist_dev_l
      3.08000000	     -0.14143054	     12.15780867	      1.09631631	     -0.19236485	      0.99835584	      0.01334141	    -18.94955786	    -15.37884856	    -26.89397962	     -8.85865672	      2.45339357	      6.89960546	     53.95392116	    -29.09103111	     33.46393265	     74.92236212	     -4.55169820	     -3.19825345	     12.24908027	      1.21580693	     -6.82383563	     -3.83090599	     -3.17877309	     -8.56640705	     -0.69006603	     54.36601849	    -23.04768868	    -13.54987160	     80.58634707	      5.82245389	     12.50416179	      3.09498527
      3.09000000	     -0.15642986	     12.21646566	      1.08698062	     -0.19237701	      0.99817971	      0.01333266	    -18.82867512	    -15.50124931	    -26.72150292	     -8.93828423	      2.36820603	      6.98575761	     53.56105410	    -28.26099144	     32.88804422	     73.68600875	     -4.86240423	     -3.84044695	     12.85672484	      1.41608743	     -6.99085686	     -4.10645314	     -3.15678685	     -8.87729224	     -0.68218465	     54.49081830	    -21.96380175	    -13.11832549	     79.71994021	      5.64380196	     13.22223721	      3.87316515
      3.10000000	     -0.16817076	     12.21377582	      1.44701844	     -0.19232936	      0.99830006	      0.01337208	    -18.64235062	    -15.71643510	    -26.41256386	     -9.11700125	      2.31914410	      7.12148143	     53.48761739	    -27.98086010	     32.89175515	     72.62579739	     -4.85440544	     -4.12695816	     12.97975558	      1.58506656	     -7.25288764	     -4.41070467	     -2.95143986	     -8.95882680	     -0.66447656	     54.50060755	    -21.56005984	    -13.21387812	     78.79753404	      5.67825383	     13.41376273	      4.16035710
      3.11000000	     -0.27355522	     12.40351470	      1.39166412	     -0.19245801	      0.99745424	      0.01338830	    -18.53976866	    -15.46364425	    -26.36547267	     -8.79541736	      2.12165092	      7.00696218	     52.70642867	    -26.66678212	     31.75869227	     71.16632229	     -5.53304046	     -5.07223236	     14.37970921	      1.93393750	     -7.13762483	     -4.79869520	     -3.35206420	     -9.65245998	     -0.57846248	     54.89137038	    -19.73019029	    -12.49211530	     77.81961679	      5.22171159	     15.11614421	      5.60621155
      3.12000000	     -0.24302767	     12.34888728	      1.62736187	     -0.19230988	      0.99773531	      0.01333232	    -18.36680277	    -15.77950112	    -26.05472479	     -9.08125599	      2.09850381	      7.19569439	     52.66452820	    -26.38544922	     31.76098540	     70.02256745	     -5.45683639	     -5.31359083	     14.40910372	      2.09818619	     -7.46939256	     -5.09787779	     -3.08807963	     -9.74748286	     -0.57969281	     54.84805758	    -19.27721601	    -12.44628770	     76.77762658	      5.29096067	     15.22144310	      5.87521276
      3.13000000	     -0.22665005	     12.34583327	      1.17013575	     -0.19209631	      0.99774855	      0.01328551	    -18.22417375	    -16.15353113	    -25.79838640	     -9.41926570	      2.05718301	      7.41957452	     52.35081570	    -25.54196276	     31.15196453	     68.67966428	     -5.56433598	     -5.65123713	     14.69785114	      2.26800643	     -7.79833176	     -5.40548160	     -2.82211145	     -9.83123134	     -0.58091325	     54.88806669	    -18.09184106	    -11.75854264	     75.59483730	      5.24072032	     15.60375286	      6.41588382
      3.14000000	     -0.35076317	     12.53641466	      1.47932342	     -0.19217291	      0.99710463	      0.01324138	    -18.12868114	    -15.90269260	    -25.74555543	     -9.11125705	      1.89207019	      7.29873948	     51.69922454	    -24.63261497	     30.35251419	     67.13381993	     -6.03453251	     -6.12003315	     15.90346435	      2.67365324	     -7.67368356	     -5.88013024	     -3.26463832	    -10.59938334	     -0.46047656	     55.28714478	    -16.55432083	    -11.33696327	     74.43371346	      4.94111638	     17.16217179	      7.52405923
      3.15000000	     -0.30346156	     12.50952461	      1.32340558	     -0.19196206	      0.99726053	      0.01311902	    -17.95872686	    -16.27234195	    -25.42268422	     -9.45992188	      1.89538016	      7.51390611	     51.58797627	    -24.11456961	     30.14221868	     65.83555884	     -5.96989440	     -6.35943415	     15.98418228	      2.88115500	     -8.04107590	     -6.25285406	     -2.96877787	    -10.69486932	     -0.44542110	     55.33579368	    -15.74170229	    -11.06226706	     73.23501377	      5.01021555	     17.36301048	      7.88226586
      3.16000000	     -0.32276635	     12.50101456	      1.20706638	     -0.19177049	      0.99721996	      0.01313445	    -17.81414040	    -16.48323545	    -25.19125134	     -9.63316721	      1.83312898	      7.64826247	     51.23346462	    -23.40267936	     29.64805343	     64.44051138	     -6.08616859	     -6.61328015	     16.35751485	      3.12970295	     -8.27505653	     -6.66430234	     -2.82433117	    -10.85622640	     -0.38567786	     55.48423290	    -14.76505801	    -10.79462728	     71.90923028	      5.00371408	     17.86333561	      8.36556460
      3.17000000	     -0.35897281	     12.48638816	      1.57547643	     -0.19154211	      0.99743424	      0.01304977	    -17.59727120	    -16.70144079	    -24.84707499	     -9.80308608	      1.75285453	      7.78794649	     51.16450913	    -23.23884530	     29.75658384	     63.19635670	     -6.01430432	     -6.86391308	     16.42980041	      3.32089422	     -8.58706468	     -7.01406627	     -2.55718015	    -10.89782362	     -0.35984512	     55.48497988	    -14.42711119	    -10.97626078	     70.71044177	      5.10378569	     18.00151663	      8.61641722
      3.18000000	     -0.43361915	     12.60623078	      1.45305047	     -0.19155786	      0.99667014	      0.01298444	    -17.54551234	    -16.44593203	    -24.78508648	     -9.55082278	      1.74966189	      7.62966324	     50.28844520	    -21.92085707	     28.71806369	     61.37157096	     -6.50854657	     -7.06767883	     17.65557756	      3.76846882	     -8.41733387	     -7.62189337	     -2.96443663	    -11.48008226	     -0.14375946	     55.79224781	    -12.61685034	    -10.42323708	     69.16659921	      4.80452705	     19.43265593	      9.44019888
      3.19000000	     -0.40954056	     12.56506567	      1.57858290	     -0.19128624	      0.99688093	      0.01283693	    -17.32480031	    -16.73931429	    -24.39581646	     -9.81657179	      1.73297346	      7.80365461	     50.25895463	    -21.65023100	     28.79602754	     60.08087409	     -6.38066490	     -7.30775239	     17.67089084	      3.99213768	     -8.76789966	     -8.03112217	     -2.65951835	    -11.51450572	     -0.10292154	     55.80810423	    -12.13227943	    -10.51324555	     67.87927905	      4.91906553	     19.55204390	      9.70193624
      3.20000000	     -0.34615230	     12.49545110	      1.15357376	     -0.19098642	      0.99684161	      0.01284353	    -17.18607175	    -17.00005908	    -24.11865569	    -10.07721429	      1.77583135	      7.94949717	     49.93503382	    -20.78218986	     28.28076465	     58.66342198	     -6.42019397	     -7.47842197	     17.92038573	      4.26462617	     -9.03990296	     -8.51439828	     -2.43153377	    -11.55812859	     -0.01288790	     55.91040349	    -11.03920843	    -10.13434502	     66.27390190	      4.89357047	     19.95261440	     10.08965693
      3.21000000	     -0.34612600	     12.49620948	      1.08699385	     -0.19080419	      0.99662390	      0.01278950	    -17.03846578	    -17.04381764	    -23.85138978	    -10.12247228	      1.80744912	      7.96439813	     49.54026908	    -20.01248780	     27.93506108	     57.15611295	     -6.51698136	     -7.61533327	     18.36028506	      4.60657599	     -9.16227682	     -9.07177336	     -2.39659821	    -11.73114774	      0.14165473	     56.01930069	     -9.99495401	     -9.97335937	     64.66748479	      4.76003147	     20.59079888	     10.45464583
